<?xml version="1.0" encoding="UTF-8" standalone="no"?>
<!DOCTYPE svg PUBLIC "-//W3C//DTD SVG 1.1//EN" "http://www.w3.org/Graphics/SVG/1.1/DTD/svg11.dtd">
<svg version="1.1" xmlns="http://www.w3.org/2000/svg" xmlns:xlink="http://www.w3.org/1999/xlink" preserveAspectRatio="xMidYMid meet" viewBox="0 0 640 640" width="640" height="640"><defs><path d="M105.97 351.37C62.75 288.63 56.47 234.25 69.02 191.72C87.15 130.37 156.17 69.72 252.37 105.27C299.08 122.7 323.49 142.22 323.49 142.22C323.49 142.22 347.89 122.7 394.6 105.27C490.81 69.72 559.83 130.37 577.95 191.72C590.5 233.55 584.23 287.93 541 351.37C466.41 459.43 323.49 544.49 323.49 544.49C279.98 505.86 180.57 459.43 105.97 351.37Z" id="i2btJEXYxo"></path><path d="M575.86 310.24C598.87 258.65 596.08 217.52 587.71 189.63C573.07 139.43 524.27 85.75 451.07 85.75C431.55 85.75 412.03 89.24 391.81 96.91C356.95 110.15 333.94 124.1 324.18 131.07C313.73 124.1 291.42 110.15 256.56 96.91C236.34 89.24 216.82 85.75 197.3 85.75C124.1 85.75 75.29 139.43 60.65 189.63C50.89 218.91 48.1 264.23 75.99 320.7C69.37 320.7 16.38 320.7 9.76 320.7C4.18 320.7 0 324.88 0 330.46C0 336.03 4.18 340.22 9.76 340.22C17.5 340.22 79.41 340.22 87.15 340.22C90.63 345.8 94.12 351.37 97.6 356.95C161.05 448.28 298.39 547.28 323.49 553.55C323.49 553.62 323.49 554.18 323.49 554.25C323.49 554.25 324.18 554.25 324.88 553.55C325.58 553.55 326.27 553.55 326.27 553.55C326.27 553.48 326.27 552.92 326.27 552.85C347.89 542.4 479.65 457.34 549.37 356.25C555.64 347.19 561.22 337.43 566.1 329.06C572.51 329.06 623.83 329.06 630.24 329.06C635.82 329.06 640 324.88 640 319.3C640 314.42 635.82 310.24 630.24 310.24C619.36 310.24 581.3 310.24 575.86 310.24ZM196.6 105.27C213.33 105.27 230.76 108.76 248.89 115.03C293.51 131.76 317.21 150.59 317.21 150.59C320.7 153.38 326.27 153.38 329.76 150.59C329.76 150.59 353.46 131.76 398.08 115.03C416.21 108.76 433.64 105.27 450.37 105.27C513.12 105.27 555.64 151.98 568.19 195.21C578.65 230.76 573.07 269.8 553.55 310.24C549.6 310.24 529.85 310.24 494.29 310.24C479.23 284.72 470.87 270.55 469.19 267.71C467.8 264.92 464.31 262.83 460.83 262.83C457.34 262.83 453.86 264.23 452.46 267.02C451.07 269.06 444.1 279.29 431.55 297.69C411.47 232.44 400.31 196.18 398.08 188.93C396.69 184.75 392.51 181.96 388.32 181.96C384.14 181.96 379.96 184.75 378.56 188.93C374.8 201.99 355.97 267.29 322.09 384.84C285.28 290.72 264.83 238.43 260.74 227.97C259.35 224.49 255.86 221.7 251.68 221.7C247.49 221.7 244.01 223.79 242.61 227.28C239.41 233.5 223.37 264.64 194.51 320.7C137.2 320.7 105.37 320.7 99 320.7C74.6 276.08 66.93 233.55 78.78 195.21C91.33 151.98 133.86 105.27 196.6 105.27ZM323.49 532.64C297.69 516.6 179.17 439.22 114.34 345.8C112.94 343.7 112.24 342.31 110.85 340.22C119.84 340.22 191.79 340.22 200.78 340.22C204.27 340.22 207.76 338.13 209.85 334.64C212.54 329.34 226.02 302.85 250.28 255.16C288.77 353.46 310.15 408.08 314.42 419C315.82 423.18 319.3 425.27 323.49 425.27C323.49 425.27 323.49 425.27 324.18 425.27C328.37 425.27 331.85 422.48 333.25 418.3C336.96 405.52 355.56 341.61 389.02 226.58C407.01 284.72 417 317.03 419 323.49C420.39 326.97 423.18 329.76 427.36 330.46C430.85 331.15 435.03 329.06 437.12 326.27C438.7 324 446.61 312.61 460.83 292.11C472.96 312.61 479.7 324 481.05 326.27C483.14 329.06 485.93 331.15 489.41 331.15C494.78 331.15 537.73 331.15 543.09 331.15C539.61 335.34 536.12 340.92 532.64 345.8C467.8 439.91 349.28 516.6 323.49 532.64Z" id="a28D5tdyeS"></path></defs><g><g><g><use xlink:href="#i2btJEXYxo" opacity="1" fill="#000000" fill-opacity="1"></use><g><use xlink:href="#i2btJEXYxo" opacity="1" fill-opacity="0" stroke="#000000" stroke-width="1" stroke-opacity="0"></use></g></g><g><use xlink:href="#a28D5tdyeS" opacity="1" fill="#ffffff" fill-opacity="1"></use><g><use xlink:href="#a28D5tdyeS" opacity="1" fill-opacity="0" stroke="#000000" stroke-width="1" stroke-opacity="0"></use></g></g></g></g></svg>