<?xml version="1.0" encoding="UTF-8" standalone="no"?>
<!DOCTYPE svg PUBLIC "-//W3C//DTD SVG 1.1//EN" "http://www.w3.org/Graphics/SVG/1.1/DTD/svg11.dtd">
<svg version="1.1" xmlns="http://www.w3.org/2000/svg" xmlns:xlink="http://www.w3.org/1999/xlink" preserveAspectRatio="xMidYMid meet" viewBox="0 0 640 640" width="640" height="640"><defs><path d="M586.46 189.81C571.86 139.92 522.59 85.78 449.58 85.78C430.11 85.78 410.65 89.43 390.57 96.73C355.89 109.51 332.78 123.5 322.43 130.8C312.09 123.5 289.58 109.51 254.3 96.73C234.22 89.43 214.14 85.78 195.29 85.78C122.28 85.78 73 139.92 58.4 189.81C49.89 219.62 46.84 264.64 75.44 321.22C68.87 321.22 16.3 321.22 9.73 321.22C4.26 321.22 0 325.48 0 330.95C0 336.43 4.26 340.68 9.73 340.68C17.46 340.68 79.27 340.68 87 340.68C90.04 346.16 93.69 351.63 97.95 357.11C161.22 448.37 298.71 547.53 323.65 553.61C323.65 553.67 323.65 554.16 323.65 554.22C323.65 554.22 324.26 554.22 324.87 553.61C325.48 553.61 326.08 553.61 326.69 553.61C326.69 553.55 326.69 553.06 326.69 553C347.98 542.66 480 457.49 549.35 356.5C556.05 347.38 561.52 338.25 566.39 329.13C572.78 329.13 623.88 329.13 630.27 329.13C635.74 329.13 640 324.87 640 319.39C640 313.92 634.52 310.27 629.05 310.27C618.22 310.27 580.32 310.27 574.9 310.27C597.41 259.16 594.98 217.79 586.46 189.81ZM113.76 346.16C112.55 344.33 111.33 342.51 110.11 340.68C119.06 340.68 190.6 340.68 199.54 340.68C203.19 340.68 206.84 338.86 208.67 335.21C211.39 329.86 224.97 303.09 249.43 254.9C287.76 353.1 309.05 407.65 313.31 418.56C314.52 422.21 318.78 424.64 322.43 424.64C322.43 424.64 322.43 424.64 323.04 424.64C327.3 424.64 330.95 421.6 332.17 417.34C335.9 404.56 354.56 340.68 388.14 225.7C406.02 283.74 415.96 315.98 417.95 322.43C419.16 326.08 422.21 328.52 425.86 329.13C429.51 329.73 433.16 327.91 435.59 324.87C437.17 322.56 445.08 311 459.32 290.19C471.36 310.63 478.05 321.99 479.39 324.26C481.22 327.3 484.26 329.13 487.91 329.13C493.38 329.13 537.19 329.13 542.66 329.13C539.01 335.21 535.36 340.68 531.71 346.16C467.22 440.46 348.59 516.5 323.04 532.93C296.88 516.5 178.86 439.85 113.76 346.16ZM469.05 267.68C467.22 264.64 464.18 262.81 460.53 262.81C456.88 262.81 453.84 264.03 452.02 267.07C450.64 269.1 443.74 279.24 431.33 297.49C411.25 232.15 400.1 195.85 397.87 188.59C396.65 184.33 392.4 181.9 388.14 181.29C383.88 181.29 379.62 184.33 378.4 188.59C374.63 201.61 355.77 266.71 321.83 383.88C284.96 289.7 264.48 237.38 260.38 226.92C259.16 223.27 255.51 220.84 251.86 220.84C247.6 220.84 244.56 222.66 242.74 226.31C239.53 232.6 223.51 264.03 194.68 320.61C136.64 320.61 104.4 320.61 97.95 320.61C73.61 276.2 66.92 233.61 77.87 195.29C90.65 152.09 132.62 105.86 195.89 105.86C212.93 105.86 230.57 109.51 248.21 115.59C292.62 132.02 316.35 150.87 316.96 150.87C320.61 153.92 325.48 153.92 329.13 150.87C329.13 150.87 352.85 132.02 397.87 115.59C415.51 108.9 433.16 105.86 450.19 105.86C512.85 105.86 555.44 152.09 568.21 195.29C578.56 230.57 573.08 269.51 553.61 310.27C545.66 310.27 525.79 310.27 493.99 310.27C479.03 284.71 470.71 270.52 469.05 267.68Z" id="d1wjcNG0P"></path><path d="M586.46 189.81C571.86 139.92 522.59 85.78 449.58 85.78C430.11 85.78 410.65 89.43 390.57 96.73C355.89 109.51 332.78 123.5 322.43 130.8C312.09 123.5 289.58 109.51 254.3 96.73C234.22 89.43 214.14 85.78 195.29 85.78C122.28 85.78 73 139.92 58.4 189.81C49.89 219.62 46.84 264.64 75.44 321.22C68.87 321.22 16.3 321.22 9.73 321.22C4.26 321.22 0 325.48 0 330.95C0 336.43 4.26 340.68 9.73 340.68C17.46 340.68 79.27 340.68 87 340.68C90.04 346.16 93.69 351.63 97.95 357.11C161.22 448.37 298.71 547.53 323.65 553.61C323.65 553.67 323.65 554.16 323.65 554.22C323.65 554.22 324.26 554.22 324.87 553.61C325.48 553.61 326.08 553.61 326.69 553.61C326.69 553.55 326.69 553.06 326.69 553C347.98 542.66 480 457.49 549.35 356.5C556.05 347.38 561.52 338.25 566.39 329.13C572.78 329.13 623.88 329.13 630.27 329.13C635.74 329.13 640 324.87 640 319.39C640 313.92 634.52 310.27 629.05 310.27C618.22 310.27 580.32 310.27 574.9 310.27C597.41 259.16 594.98 217.79 586.46 189.81ZM113.76 346.16C112.55 344.33 111.33 342.51 110.11 340.68C119.06 340.68 190.6 340.68 199.54 340.68C203.19 340.68 206.84 338.86 208.67 335.21C211.39 329.86 224.97 303.09 249.43 254.9C287.76 353.1 309.05 407.65 313.31 418.56C314.52 422.21 318.78 424.64 322.43 424.64C322.43 424.64 322.43 424.64 323.04 424.64C327.3 424.64 330.95 421.6 332.17 417.34C335.9 404.56 354.56 340.68 388.14 225.7C406.02 283.74 415.96 315.98 417.95 322.43C419.16 326.08 422.21 328.52 425.86 329.13C429.51 329.73 433.16 327.91 435.59 324.87C437.17 322.56 445.08 311 459.32 290.19C471.36 310.63 478.05 321.99 479.39 324.26C481.22 327.3 484.26 329.13 487.91 329.13C493.38 329.13 537.19 329.13 542.66 329.13C539.01 335.21 535.36 340.68 531.71 346.16C467.22 440.46 348.59 516.5 323.04 532.93C296.88 516.5 178.86 439.85 113.76 346.16ZM469.05 267.68C467.22 264.64 464.18 262.81 460.53 262.81C456.88 262.81 453.84 264.03 452.02 267.07C450.64 269.1 443.74 279.24 431.33 297.49C411.25 232.15 400.1 195.85 397.87 188.59C396.65 184.33 392.4 181.9 388.14 181.29C383.88 181.29 379.62 184.33 378.4 188.59C374.63 201.61 355.77 266.71 321.83 383.88C284.96 289.7 264.48 237.38 260.38 226.92C259.16 223.27 255.51 220.84 251.86 220.84C247.6 220.84 244.56 222.66 242.74 226.31C239.53 232.6 223.51 264.03 194.68 320.61C136.64 320.61 104.4 320.61 97.95 320.61C73.61 276.2 66.92 233.61 77.87 195.29C90.65 152.09 132.62 105.86 195.89 105.86C212.93 105.86 230.57 109.51 248.21 115.59C292.62 132.02 316.35 150.87 316.96 150.87C320.61 153.92 325.48 153.92 329.13 150.87C329.13 150.87 352.85 132.02 397.87 115.59C415.51 108.9 433.16 105.86 450.19 105.86C512.85 105.86 555.44 152.09 568.21 195.29C578.56 230.57 573.08 269.51 553.61 310.27C545.66 310.27 525.79 310.27 493.99 310.27C479.03 284.71 470.71 270.52 469.05 267.68Z" id="hJNRaAvid"></path></defs><g><g><g><use xlink:href="#d1wjcNG0P" opacity="1" fill="#ececec" fill-opacity="1"></use><g><use xlink:href="#d1wjcNG0P" opacity="1" fill-opacity="0" stroke="#000000" stroke-width="1" stroke-opacity="0"></use></g></g><g><use xlink:href="#hJNRaAvid" opacity="1" fill="#ececec" fill-opacity="1"></use><g><use xlink:href="#hJNRaAvid" opacity="1" fill-opacity="0" stroke="#000000" stroke-width="1" stroke-opacity="0"></use></g></g></g></g></svg>